<?xml version="1.0" standalone="no"?>
<!DOCTYPE svg PUBLIC "-//W3C//DTD SVG 20010904//EN"
 "http://www.w3.org/TR/2001/REC-SVG-20010904/DTD/svg10.dtd">
<svg version="1.0" xmlns="http://www.w3.org/2000/svg"
 width="1092.000000pt" height="712.000000pt" viewBox="0 0 1092.000000 712.000000"
 preserveAspectRatio="xMidYMid meet">

<g transform="translate(0.000000,712.000000) scale(0.100000,-0.100000)"
fill="#000000" stroke="none">
<path d="M17 7102 c-16 -17 -17 -278 -17 -3544 0 -3402 1 -3525 18 -3541 17
-16 410 -17 5444 -17 5243 0 5425 1 5441 18 16 17 17 277 17 3540 0 3509 0
3522 -20 3542 -20 20 -33 20 -5443 20 -5242 0 -5424 -1 -5440 -18z m4623
-3048 l100 -47 0 -91 0 -91 78 -45 77 -45 3 -81 3 -81 104 -48 105 -48 0 -122
0 -122 -103 -48 -104 -47 -49 17 -49 18 -139 -82 c-76 -44 -140 -81 -141 -81
-2 0 -70 38 -151 85 l-148 85 -52 -21 -53 -22 -105 48 -106 48 0 122 0 122
103 46 c56 26 110 47 120 47 15 0 17 11 17 83 l0 82 80 45 79 45 3 93 3 93 95
44 c52 24 103 44 112 45 10 0 63 -21 118 -46z m-1997 -219 c28 -12 38 -23 46
-52 13 -47 47 -317 56 -435 l7 -88 -40 0 c-45 0 -42 -6 -58 133 -5 45 -10 57
-21 53 -8 -3 -23 -6 -33 -6 -15 0 -19 -13 -26 -87 -5 -47 -13 -88 -19 -90 -19
-5 -35 13 -37 43 -3 46 -12 52 -20 14 -4 -20 -5 -9 -2 25 3 33 10 64 15 69 5
6 9 18 9 27 0 10 9 20 19 24 21 6 41 77 46 163 2 24 6 46 9 49 3 4 6 15 6 25
0 57 -57 -55 -70 -137 l-8 -50 -1 42 c-1 43 42 241 60 274 12 23 17 23 62 4z
m446 3 c76 4 151 -39 151 -88 0 -23 -57 -14 -73 11 -25 40 -36 16 -47 -100 -9
-86 1 -221 21 -295 12 -45 19 -41 58 31 20 37 32 49 54 51 22 3 27 -1 27 -19
0 -33 -38 -106 -67 -129 -18 -14 -41 -20 -74 -20 -82 0 -97 42 -104 281 -4
151 -1 190 20 242 6 14 2 17 -26 16 l-34 -1 30 -8 c27 -7 25 -8 -17 -9 -26 0
-58 -5 -72 -11 -25 -9 -26 -13 -26 -93 0 -46 -3 -159 -7 -250 l-6 -167 -35 0
-35 0 7 138 c19 350 19 352 -25 352 -22 0 -32 6 -39 26 -6 14 -10 29 -10 34 0
13 90 18 200 12 52 -3 110 -5 129 -4z m2920 -6 c23 -11 37 -27 43 -47 14 -52
48 -326 55 -437 l6 -108 -29 0 c-16 0 -34 4 -40 8 -7 4 -17 47 -23 97 -7 49
-14 91 -15 92 -2 2 -17 0 -34 -3 -30 -6 -30 -6 -37 -91 -5 -59 -12 -86 -22
-90 -20 -8 -37 12 -40 45 -1 15 -5 46 -9 70 -4 28 -3 42 5 42 6 0 11 9 11 19
0 11 9 22 19 26 20 6 29 36 51 175 14 89 13 95 -5 76 -21 -21 -47 -91 -55
-151 l-7 -50 -2 43 c-1 46 41 249 59 282 13 24 24 24 69 2z m677 -7 c15 -9 25
-32 32 -72 19 -96 42 -291 49 -405 l6 -108 -29 0 c-16 0 -34 4 -40 8 -7 4 -17
47 -23 96 -6 49 -12 91 -14 93 -2 2 -17 0 -34 -3 -30 -6 -30 -7 -39 -92 -8
-77 -11 -87 -29 -87 -15 0 -21 9 -27 40 -19 97 -21 115 -9 115 6 0 11 9 11 19
0 11 9 22 19 26 21 6 33 49 52 178 12 87 12 91 -4 75 -21 -21 -50 -99 -57
-153 l-7 -50 -2 45 c0 25 5 70 13 100 7 30 17 73 21 95 4 22 13 55 21 74 12
29 17 32 41 26 16 -3 37 -12 49 -20z m2069 4 c5 -5 -2 -9 -20 -10 -26 0 -27
-2 -10 -9 15 -6 8 -9 -27 -9 -93 -2 -94 -4 -101 -158 -4 -75 -7 -189 -7 -253
l0 -118 -27 -5 c-41 -8 -56 16 -49 78 4 28 9 134 12 238 l6 187 -34 0 c-28 0
-37 5 -46 25 -7 14 -12 30 -12 35 0 20 294 20 315 -1z m-6577 -56 c-3 -32 -3
-52 -1 -45 3 6 9 10 14 6 5 -3 9 12 9 34 0 28 4 39 15 39 12 0 15 -15 15 -71
l1 -71 26 50 c32 64 81 115 109 115 31 0 94 -68 93 -100 l-1 -25 -7 25 c-6 21
-8 18 -17 -23 -6 -26 -8 -47 -3 -47 4 0 10 6 12 13 2 6 3 -1 1 -17 -5 -37 -62
-139 -115 -206 -31 -40 -46 -51 -61 -47 -20 6 -20 2 -15 -59 l5 -64 -43 0 -42
0 -6 98 c-9 122 -9 400 -1 430 11 40 17 23 12 -35z m1209 43 c2 -2 9 -64 14
-137 6 -74 12 -135 14 -137 2 -3 15 -2 29 2 18 4 26 14 28 34 2 19 8 27 21 26
9 -1 17 1 18 5 9 104 27 196 39 196 11 0 13 -20 10 -105 -2 -58 -4 -121 -6
-140 -1 -19 -3 -86 -3 -148 l-1 -113 -32 3 c-29 3 -33 7 -34 33 -1 17 -5 63
-9 103 -6 57 -11 72 -22 67 -8 -3 -19 -5 -25 -5 -8 0 -9 -39 -5 -125 3 -76 2
-127 -4 -131 -5 -3 -22 -3 -38 1 -25 5 -28 10 -29 55 0 27 -6 59 -12 70 -10
19 -29 270 -30 404 l0 59 36 -6 c20 -3 38 -8 41 -11z m2134 -19 c8 -14 13 -16
19 -7 4 7 13 9 20 5 8 -5 9 -10 2 -14 -6 -3 -13 -23 -17 -44 -6 -28 -4 -37 6
-37 11 0 11 -2 -1 -10 -9 -6 -10 -10 -3 -10 6 0 14 -8 17 -17 2 -10 4 8 3 39
0 32 2 60 5 63 7 7 34 -73 44 -128 8 -45 19 -55 29 -24 4 14 8 17 12 9 9 -23
42 26 49 74 3 24 10 44 14 44 4 0 10 14 14 30 4 21 11 30 25 30 11 0 22 -4 25
-8 3 -4 6 -120 7 -257 l2 -249 -36 -12 c-46 -16 -50 -10 -46 74 1 37 1 96 0
132 l-2 65 -17 -50 -17 -50 -50 0 -49 0 -17 65 c-10 36 -19 79 -20 95 -1 17
-5 -45 -9 -138 -4 -92 -9 -170 -12 -172 -3 -3 -22 -9 -43 -12 l-38 -6 6 199
c5 173 17 299 32 341 6 17 33 5 46 -20z m887 27 c21 -6 22 -11 22 -108 0 -55
10 -174 22 -263 12 -90 19 -165 16 -169 -4 -3 -24 -8 -46 -11 -39 -5 -39 -5
-74 53 -51 85 -87 182 -82 224 3 30 2 32 -5 10 -6 -17 -9 -20 -10 -7 -1 9 -5
17 -11 17 -6 0 -10 -53 -10 -139 0 -114 -3 -140 -15 -145 -26 -10 -42 4 -49
42 -7 44 -7 193 1 174 7 -17 23 -5 23 19 0 10 7 19 15 19 14 0 17 15 18 103 0
25 -16 77 -24 77 -4 0 -10 -8 -12 -17 -3 -10 -5 -1 -6 19 -1 39 14 57 32 39 6
-6 21 -11 34 -11 19 0 25 -10 43 -72 11 -40 34 -107 50 -148 29 -75 29 -75 31
-35 1 38 2 39 8 10 l7 -30 7 27 c7 25 0 229 -8 255 -2 7 -11 10 -20 7 -16 -7
-19 6 -9 44 7 23 15 26 52 16z m1103 -26 c8 -15 13 -17 25 -7 11 9 17 5 30
-26 9 -21 24 -70 33 -109 18 -71 18 -71 32 -43 12 26 14 27 20 10 7 -17 8 -17
8 0 1 10 5 16 10 13 5 -3 14 16 21 42 6 26 16 55 21 65 5 10 7 22 4 27 -4 6
-1 10 5 10 6 0 8 5 5 10 -3 6 5 10 18 10 14 0 28 -7 31 -16 3 -9 6 -124 6
-257 l0 -242 -35 -11 c-22 -7 -38 -8 -41 -2 -3 5 -6 66 -6 136 1 126 -2 131
-28 59 -9 -26 -13 -28 -57 -25 l-47 3 -18 55 c-9 30 -18 73 -19 95 -3 60 -16
-90 -18 -207 0 -54 -5 -98 -10 -98 -5 0 -23 -3 -40 -6 l-31 -6 0 144 c0 150
15 345 31 385 10 26 33 22 50 -9z m464 17 c92 -15 97 -27 13 -29 -50 -1 -53
-2 -61 -33 -5 -17 -6 -69 -2 -116 l7 -84 52 5 c75 6 78 -11 9 -46 -48 -24 -58
-34 -56 -53 8 -104 16 -159 24 -159 6 0 25 11 43 25 31 23 86 35 86 18 -1 -15
-37 -52 -71 -72 -45 -27 -134 -29 -148 -3 -15 29 -32 162 -32 262 -1 181 3
265 13 277 11 13 45 22 68 17 8 -2 33 -6 55 -9z m393 9 c21 -6 22 -11 22 -98
0 -50 7 -140 16 -201 18 -132 28 -245 23 -245 -2 0 -19 -4 -37 -9 -27 -8 -35
-6 -51 11 -28 29 -79 128 -111 216 -16 42 -30 75 -31 72 -1 -3 -4 -68 -8 -145
-5 -113 -9 -140 -21 -142 -30 -6 -39 14 -46 99 -7 93 1 160 16 123 7 -16 9
-11 10 20 1 22 4 34 7 28 8 -21 25 -15 18 7 -3 10 -1 29 6 41 9 17 9 35 -1 78
-11 48 -14 53 -21 34 -11 -31 -19 -29 -19 5 0 38 15 59 32 45 7 -6 24 -13 38
-15 21 -3 27 -14 51 -93 26 -90 66 -196 76 -205 3 -3 3 6 0 19 -4 16 -1 28 10
36 13 10 14 28 8 133 -6 94 -10 122 -21 122 -9 0 -14 12 -14 35 0 36 6 40 48
29z m-1020 -23 c19 -11 18 -12 -52 -14 -46 -2 -50 -4 -58 -32 -5 -16 -6 -69
-2 -116 l6 -86 43 5 c23 2 51 0 61 -6 15 -8 9 -14 -39 -37 l-57 -26 0 -48 c0
-69 11 -141 22 -141 5 0 24 11 42 25 32 24 86 34 86 16 0 -15 -78 -80 -103
-86 -13 -4 -43 -5 -68 -3 -44 3 -44 3 -57 53 -19 70 -28 465 -12 495 12 22 16
22 91 17 44 -4 87 -11 97 -16z m-361 -7 c12 -2 36 -22 53 -44 l32 -40 -34 0
c-25 0 -42 8 -63 30 -16 17 -34 30 -41 30 -49 0 -43 -287 9 -410 l14 -35 11
40 c7 22 15 82 18 133 l7 92 -29 0 c-17 0 -24 4 -18 9 11 11 184 20 184 10 0
-4 -15 -9 -32 -11 l-33 -3 -6 -100 c-4 -67 -13 -116 -26 -145 -23 -51 -34 -62
-83 -79 -32 -11 -37 -10 -57 14 -39 45 -62 144 -69 295 -9 212 15 244 163 214z
m1150 -256 c-3 -7 -5 -2 -5 12 0 14 2 19 5 13 2 -7 2 -19 0 -25z m-2280 -245
c-3 -10 -5 -2 -5 17 0 19 2 27 5 18 2 -10 2 -26 0 -35z m660 0 c-3 -10 -5 -2
-5 17 0 19 2 27 5 18 2 -10 2 -26 0 -35z"/>
<path d="M4441 4041 c-44 -20 -81 -38 -81 -41 0 -3 37 -22 81 -42 l81 -37 79
36 c43 20 79 39 79 43 0 3 -36 23 -79 42 l-79 36 -81 -37z"/>
<path d="M4623 3939 l-83 -40 0 -94 c0 -52 2 -95 5 -95 3 0 42 16 85 36 l80
37 0 98 c0 55 -1 99 -2 98 -2 0 -40 -19 -85 -40z"/>
<path d="M4340 3876 l0 -94 76 -36 c42 -20 80 -36 85 -36 5 0 9 42 9 93 l0 94
-78 36 c-43 21 -81 37 -85 37 -4 0 -7 -42 -7 -94z"/>
<path d="M4233 3752 l-63 -37 0 -81 0 -81 83 -39 82 -39 0 -120 0 -120 -33
-17 c-19 -9 -36 -18 -38 -21 -3 -3 55 -39 129 -81 l134 -76 121 71 c67 39 122
75 122 79 0 3 -19 15 -42 26 l-43 19 0 120 0 119 93 45 92 45 0 77 0 78 -62
36 c-49 29 -63 34 -69 22 -5 -7 -55 -35 -112 -61 l-104 -48 -94 43 c-52 23
-101 50 -111 61 -9 10 -18 18 -20 18 -1 -1 -31 -18 -65 -38z"/>
<path d="M4033 3504 c-40 -18 -73 -35 -73 -37 0 -3 37 -21 83 -41 l82 -37 84
39 84 38 -78 37 c-42 20 -84 37 -94 36 -9 0 -49 -16 -88 -35z"/>
<path d="M4807 3503 l-77 -38 84 -38 84 -39 84 40 83 40 -78 36 c-43 20 -84
36 -91 36 -6 0 -47 -17 -89 -37z"/>
<path d="M3942 3345 l3 -98 83 -38 82 -38 0 98 0 98 -72 32 c-40 18 -79 35
-86 38 -10 4 -12 -16 -10 -92z"/>
<path d="M4218 3403 l-78 -36 0 -98 0 -98 83 39 82 39 3 95 c1 53 -1 96 -5 96
-4 0 -43 -17 -85 -37z"/>
<path d="M4712 3344 l3 -95 83 -39 82 -39 0 98 0 98 -78 36 c-43 21 -81 37
-85 37 -4 0 -6 -43 -5 -96z"/>
<path d="M4988 3402 l-78 -36 0 -98 0 -97 78 35 c42 20 83 38 90 41 8 4 12 33
12 99 0 69 -3 94 -12 93 -7 0 -48 -17 -90 -37z"/>
<path d="M2639 3648 c-1 -31 -2 -31 -8 -8 -7 21 -9 17 -19 -30 -6 -30 -14 -74
-17 -97 -7 -43 -7 -43 24 -43 28 0 31 3 32 33 l1 32 8 -30 c7 -28 8 -28 9 -5
1 20 3 22 11 10 12 -17 6 21 -11 74 -5 16 -9 42 -9 57 0 40 -20 47 -21 7z"/>
<path d="M3041 3524 c0 -11 3 -14 6 -6 3 7 2 16 -1 19 -3 4 -6 -2 -5 -13z"/>
<path d="M5999 3643 l-1 -28 -7 25 c-6 21 -9 15 -18 -35 -7 -33 -15 -79 -18
-103 -7 -43 -7 -43 21 -40 23 2 30 9 35 33 l7 30 1 -28 c1 -26 2 -27 17 -12
11 11 14 24 9 43 -3 15 -12 53 -18 85 -11 60 -26 76 -28 30z"/>
<path d="M6668 3674 c-5 -4 -8 -19 -9 -33 l-1 -26 -7 25 c-6 20 -10 9 -20 -50
-7 -41 -15 -88 -18 -103 -5 -26 -3 -28 23 -25 23 2 30 9 35 33 l7 30 1 -28 c1
-17 5 -26 12 -22 6 4 8 14 5 22 -3 8 -1 11 4 8 13 -8 13 31 0 55 -5 10 -13 42
-17 70 -5 29 -11 48 -15 44z"/>
<path d="M2359 3768 c-7 -13 -23 -36 -37 -53 -13 -16 -20 -31 -15 -32 6 -2 1
-31 -12 -66 -12 -34 -25 -78 -28 -97 l-7 -35 20 25 c32 42 96 153 108 189 17
48 15 91 -3 91 -8 0 -20 -10 -26 -22z"/>
<path d="M2390 3615 c0 -8 2 -15 4 -15 2 0 6 7 10 15 3 8 1 15 -4 15 -6 0 -10
-7 -10 -15z"/>
<path d="M5481 3748 c-5 -18 -12 -60 -14 -93 -3 -33 -3 -50 0 -37 2 12 9 22
14 22 5 0 9 8 9 18 0 14 2 15 10 2 7 -11 10 0 10 38 0 36 -4 51 -11 46 -8 -4
-9 0 -4 15 3 11 4 21 1 21 -2 0 -9 -15 -15 -32z"/>
<path d="M5473 3445 c0 -22 2 -30 4 -17 2 12 2 30 0 40 -3 9 -5 -1 -4 -23z"/>
<path d="M5491 3334 c0 -11 3 -14 6 -6 3 7 2 16 -1 19 -3 4 -6 -2 -5 -13z"/>
<path d="M6253 3626 c-1 -26 3 -33 13 -29 8 3 14 -1 14 -8 0 -7 3 -9 6 -6 6 5
-22 77 -29 77 -2 0 -3 -15 -4 -34z"/>
<path d="M7538 3762 c-5 -63 -4 -82 3 -82 4 0 10 -10 12 -22 2 -13 2 9 0 47
-5 71 -12 96 -15 57z"/>
<path d="M7470 3744 c-6 -14 -13 -51 -16 -82 l-5 -57 17 33 c9 17 20 32 25 32
13 0 11 67 -1 75 -6 4 -8 11 -5 16 4 5 4 9 0 9 -3 0 -10 -12 -15 -26z"/>
<path d="M7463 3420 c0 -41 2 -58 4 -37 2 20 2 54 0 75 -2 20 -4 3 -4 -38z"/>
<path d="M7481 3334 c0 -11 3 -14 6 -6 3 7 2 16 -1 19 -3 4 -6 -2 -5 -13z"/>
<path d="M7888 3799 c-20 -11 -23 -56 -9 -124 l9 -40 1 48 c0 26 5 47 11 47 5
0 13 12 16 28 4 15 11 33 17 40 12 15 -20 16 -45 1z"/>
<path d="M7851 3674 c0 -11 3 -14 6 -6 3 7 2 16 -1 19 -3 4 -6 -2 -5 -13z"/>
<path d="M8220 3643 c0 -6 -3 -18 -6 -26 -3 -9 3 -16 15 -20 25 -6 25 -7 6 29
-8 16 -15 24 -15 17z"/>
<path d="M8220 3566 c0 -14 4 -27 8 -30 5 -3 6 8 4 25 -5 35 -12 38 -12 5z"/>
<path d="M7198 3799 c-19 -11 -23 -75 -8 -134 7 -27 8 -25 9 16 1 32 6 49 16
53 8 3 15 16 15 29 0 13 5 28 12 35 9 9 8 12 -7 12 -11 0 -28 -5 -37 -11z"/>
<path d="M7161 3674 c0 -11 3 -14 6 -6 3 7 2 16 -1 19 -3 4 -6 -2 -5 -13z"/>
</g>
</svg>
